<svg viewBox="0 0 200 300" xmlns="http://www.w3.org/2000/svg">
  <!-- Main stem/vein -->
  <path d="M100 280 L100 20" stroke="#000000" stroke-width="3" fill="none"/>
  
  <!-- Left side veins -->
  <path d="M100 50 L60 40" stroke="#000000" stroke-width="2" fill="none"/>
  <path d="M100 80 L55 70" stroke="#000000" stroke-width="2" fill="none"/>
  <path d="M100 110 L50 100" stroke="#000000" stroke-width="2" fill="none"/>
  <path d="M100 140 L45 130" stroke="#000000" stroke-width="2" fill="none"/>
  <path d="M100 170 L40 160" stroke="#000000" stroke-width="2" fill="none"/>
  <path d="M100 200 L35 190" stroke="#000000" stroke-width="2" fill="none"/>
  <path d="M100 230 L30 220" stroke="#000000" stroke-width="2" fill="none"/>
  <path d="M100 260 L25 250" stroke="#000000" stroke-width="2" fill="none"/>
  
  <!-- Right side veins -->
  <path d="M100 50 L140 40" stroke="#000000" stroke-width="2" fill="none"/>
  <path d="M100 80 L145 70" stroke="#000000" stroke-width="2" fill="none"/>
  <path d="M100 110 L150 100" stroke="#000000" stroke-width="2" fill="none"/>
  <path d="M100 140 L155 130" stroke="#000000" stroke-width="2" fill="none"/>
  <path d="M100 170 L160 160" stroke="#000000" stroke-width="2" fill="none"/>
  <path d="M100 200 L165 190" stroke="#000000" stroke-width="2" fill="none"/>
  <path d="M100 230 L170 220" stroke="#000000" stroke-width="2" fill="none"/>
  <path d="M100 260 L175 250" stroke="#000000" stroke-width="2" fill="none"/>
  
  <!-- Secondary branching veins -->
  <path d="M60 40 L40 30" stroke="#000000" stroke-width="1.5" fill="none"/>
  <path d="M60 40 L50 20" stroke="#000000" stroke-width="1.5" fill="none"/>
  <path d="M55 70 L35 60" stroke="#000000" stroke-width="1.5" fill="none"/>
  <path d="M55 70 L45 50" stroke="#000000" stroke-width="1.5" fill="none"/>
  <path d="M50 100 L30 90" stroke="#000000" stroke-width="1.5" fill="none"/>
  <path d="M50 100 L40 80" stroke="#000000" stroke-width="1.5" fill="none"/>
  
  <path d="M140 40 L160 30" stroke="#000000" stroke-width="1.5" fill="none"/>
  <path d="M140 40 L150 20" stroke="#000000" stroke-width="1.5" fill="none"/>
  <path d="M145 70 L165 60" stroke="#000000" stroke-width="1.5" fill="none"/>
  <path d="M145 70 L155 50" stroke="#000000" stroke-width="1.5" fill="none"/>
  <path d="M150 100 L170 90" stroke="#000000" stroke-width="1.5" fill="none"/>
  <path d="M150 100 L160 80" stroke="#000000" stroke-width="1.5" fill="none"/>
  
  <!-- Leaf outline -->
  <path d="M100 20 Q80 15 60 25 Q40 40 30 60 Q25 80 30 100 Q35 120 45 140 Q55 160 70 180 Q85 200 100 220 Q115 200 130 180 Q145 160 155 140 Q165 120 170 100 Q175 80 170 60 Q160 40 140 25 Q120 15 100 20 Z" stroke="#000000" stroke-width="2" fill="none"/>
</svg>
